# xmcd
#
# Track frame offsets:
#	150
#	19115
#	41753
#	67367
#	87034
#	112708
#	133533
#	153577
#	174663
#	197251
#
# Disc length: 2889 seconds
#
# Revision: 0
# Processed by: cddbd v1.4PL0 Copyright (c) Steve Scherf et al.
# Submitted via: dBpowerAMP V4.0
#
DISCID=7d0b470a
DTITLE=Derrin Nauendorf - Wasteland
DYEAR=2003
DGENRE=Blues
TTITLE0=Strange Feeling
TTITLE1=Let it go
TTITLE2=Deliver Me an Angel
TTITLE3=Where Two Men Go Tonight
TTITLE4=All The Faces
TTITLE5=Crossroads
TTITLE6=Wasteland
TTITLE7=Shatter Like Stars
TTITLE8=Long Road Home
TTITLE9=My Town
EXTD=Solo Australian Blues artist
EXTT0=
EXTT1=
EXTT2=
EXTT3=
EXTT4=
EXTT5=
EXTT6=
EXTT7=
EXTT8=
EXTT9=
PLAYORDER=
